<svg height="408pt" viewBox="-43 0 408 408" width="408pt" xmlns="http://www.w3.org/2000/svg"><path d="m53.1875 103.285156h86.09375v41.804688h-86.09375zm0 0"/><path d="m74.710938 0h182.941406v25.007812h-182.941406zm0 0"/><path d="m15.523438 19.820312c-8.566407.011719-15.5117192 6.953126-15.523438 15.523438v357.132812c.0117188 8.570313 6.957031 15.515626 15.523438 15.523438h290.550781c8.570312-.007812 15.515625-6.953125 15.527343-15.523438v-357.132812c-.011718-8.566406-6.957031-15.511719-15.523437-15.523438h-36.425781v11.1875c0 3.3125-2.6875 6-6 6h-194.941406c-3.316407 0-6-2.6875-6-6v-11.1875zm31.664062 250.101563h68.113281c3.3125 0 6 2.6875 6 6s-2.6875 6-6 6h-68.113281c-3.3125 0-6-2.6875-6-6s2.6875-6 6-6zm-6-63.84375c0-3.3125 2.6875-6 6-6h17.414062c3.3125 0 6 2.6875 6 6s-2.6875 6-6 6h-17.414062c-3.316406 0-6-2.6875-6-6zm41.859375 0c0-3.3125 2.6875-6 6-6h110.339844c3.3125 0 6 2.6875 6 6s-2.6875 6-6 6h-110.339844c-3.3125 0-6-2.6875-6-6zm118.339844 140.398437h-154.203125c-3.3125 0-6-2.683593-6-6 0-3.3125 2.6875-6 6-6h154.203125c3.3125 0 6 2.6875 6 6 0 3.316407-2.6875 6-6 6zm39.757812 0h-11.28125c-3.3125 0-6-2.683593-6-6 0-3.3125 2.6875-6 6-6h11.28125c3.3125 0 6 2.6875 6 6 0 3.316407-2.6875 6-6 6zm33.269531 0h-5.453124c-3.316407 0-6-2.683593-6-6 0-3.3125 2.683593-6 6-6h5.453124c3.3125 0 6 2.6875 6 6 0 3.316407-2.6875 6-6 6zm0-64.554687h-131.300781c-3.3125 0-6-2.683594-6-6 0-3.3125 2.6875-6 6-6h131.300781c3.3125 0 6 2.6875 6 6 0 3.316406-2.6875 6-6 6zm0-69.84375h-47.214843c-3.3125 0-6-2.683594-6-6 0-3.3125 2.6875-6 6-6h47.210937c3.316406 0 6 2.6875 6 6 0 3.316406-2.683594 6-6 6zm0-54.984375h-4.167968c-3.3125 0-6-2.6875-6-6 0-3.316406 2.6875-6 6-6h4.167968c3.3125 0 6 2.683594 6 6 0 3.3125-2.6875 6-6 6zm-46.136718-65.808594h46.136718c3.3125 0 6 2.6875 6 6 0 3.316406-2.6875 6-6 6h-46.136718c-3.3125 0-6-2.683594-6-6 0-3.3125 2.6875-6 6-6zm-31.617188 0h3.800782c3.3125 0 6 2.6875 6 6 0 3.316406-2.6875 6-6 6h-3.800782c-3.316406 0-6-2.683594-6-6 0-3.3125 2.683594-6 6-6zm0 53.808594h45.769532c3.3125 0 6 2.683594 6 6 0 3.3125-2.6875 6-6 6h-45.769532c-3.316406 0-6-2.6875-6-6 0-3.316406 2.683594-6 6-6zm-51.378906-53.808594c3.3125 0 6 2.6875 6 6v53.804688c0 3.3125-2.6875 6-6 6h-98.09375c-3.3125 0-6-2.6875-6-6v-53.804688c0-3.3125 2.6875-6 6-6zm0 0"/></svg>